<?xml version="1.0" standalone="no"?>
<!DOCTYPE svg PUBLIC "-//W3C//DTD SVG 20010904//EN"
 "http://www.w3.org/TR/2001/REC-SVG-20010904/DTD/svg10.dtd">
<svg version="1.0" xmlns="http://www.w3.org/2000/svg"
 width="512.000000pt" height="512.000000pt" viewBox="0 0 512.000000 512.000000"
 preserveAspectRatio="xMidYMid meet">
<metadata>
Created by potrace 1.16, written by Peter Selinger 2001-2019
</metadata>
<g transform="translate(0.000000,512.000000) scale(0.100000,-0.100000)"
fill="#000000" stroke="none">
<path d="M2561 4461 c-29 -12 -40 -21 -32 -26 7 -4 17 -3 23 3 6 6 17 8 24 5
8 -3 14 0 14 7 0 7 8 9 20 5 11 -4 20 -2 20 4 0 6 7 8 15 5 9 -4 -12 -19 -56
-41 -38 -19 -76 -32 -84 -29 -18 7 -20 32 -2 39 8 4 9 6 0 6 -17 1 -43 -28
-43 -47 0 -33 13 -64 20 -52 6 9 13 9 30 0 17 -9 29 -9 47 -1 36 16 43 14 43
-17 0 -18 11 -38 30 -57 17 -16 30 -35 30 -42 0 -7 5 -22 12 -32 17 -28 -40
-144 -84 -171 -41 -25 -48 -25 -48 -1 0 11 -4 23 -10 26 -15 10 -12 -81 3 -94
9 -7 24 -8 47 -1 19 5 35 8 38 6 2 -2 -18 -19 -45 -38 -36 -25 -59 -33 -93
-34 -25 -1 -76 -4 -115 -9 -61 -6 -73 -5 -92 11 -34 28 -21 62 26 70 56 10 73
22 65 46 -10 34 -7 88 8 105 11 15 11 16 -5 10 -10 -4 -21 -7 -23 -7 -2 0 -4
-7 -4 -15 0 -8 -4 -15 -10 -15 -5 0 -10 -5 -10 -11 0 -5 4 -8 9 -5 8 5 26 -73
18 -81 -2 -2 -27 -6 -55 -10 -39 -4 -58 -2 -77 11 -31 21 -32 8 -4 -51 24 -49
61 -73 114 -73 35 0 36 -2 31 -27 -3 -16 -10 -63 -16 -107 -13 -101 -33 -187
-61 -261 l-22 -58 -19 34 c-11 19 -17 26 -14 17 13 -43 16 -84 6 -98 -8 -13
-17 -11 -64 13 -30 16 -73 45 -97 65 -24 20 -45 35 -47 34 -2 -2 -7 0 -10 4
-4 4 -1 4 7 -1 9 -5 12 -3 9 6 -3 8 -10 14 -16 14 -5 0 -14 4 -19 9 -5 6 -2 6
6 1 11 -6 13 -4 6 11 -28 65 -55 154 -55 186 0 29 6 41 29 57 37 27 67 75 75
123 5 29 13 38 36 47 33 11 44 32 53 103 5 34 3 49 -8 58 -17 14 -20 46 -6 55
5 3 26 -5 47 -17 l37 -22 -6 23 c-4 15 2 39 14 63 14 28 18 48 13 74 -6 31 -4
36 12 32 21 -4 67 -66 61 -82 -3 -6 0 -19 5 -28 7 -14 4 -18 -12 -18 -25 0
-26 -12 -1 -27 16 -10 20 -9 25 11 15 59 -65 188 -124 201 -62 14 -185 -20
-233 -63 -35 -31 -59 -91 -56 -140 2 -28 -1 -47 -8 -49 -21 -7 -35 -67 -23
-99 24 -63 92 -100 138 -75 17 9 21 8 24 -7 6 -25 -8 -79 -27 -108 -15 -23
-33 -36 -146 -104 -23 -14 -65 -53 -93 -87 -29 -34 -74 -79 -101 -100 -28 -20
-76 -57 -108 -81 l-59 -45 -106 17 c-59 10 -147 27 -197 38 -73 17 -110 20
-196 15 -124 -6 -171 -23 -214 -75 -38 -46 -38 -55 0 -62 21 -4 31 -11 33 -28
5 -30 24 -28 74 8 22 17 48 30 57 30 9 0 41 6 70 14 53 14 53 14 163 -31 119
-48 276 -93 322 -93 53 0 215 103 330 210 49 45 84 70 99 70 18 0 40 -22 93
-91 100 -132 99 -130 69 -175 -29 -42 -31 -79 -10 -132 18 -41 54 -84 65 -77
4 3 15 -4 25 -15 17 -19 16 -21 -27 -72 -24 -29 -111 -136 -192 -238 -111
-139 -130 -166 -76 -110 73 77 227 264 294 358 37 51 39 52 87 52 56 0 87 13
174 75 33 24 82 54 109 66 l48 24 34 -40 c46 -54 102 -172 162 -342 138 -387
265 -620 519 -956 93 -122 292 -354 359 -417 26 -25 -2 11 -62 80 -210 241
-365 442 -407 531 -28 59 -47 148 -47 217 l0 45 72 -104 c138 -202 307 -415
506 -639 l111 -125 -27 -28 c-15 -16 -44 -38 -64 -48 -21 -11 -38 -22 -38 -24
0 -10 86 38 112 63 15 14 31 22 35 18 12 -12 -64 -78 -133 -115 -42 -23 -69
-43 -70 -55 -7 -52 -92 -96 -187 -96 -18 0 -70 -14 -117 -30 -47 -16 -98 -30
-115 -30 l-30 1 30 24 c36 29 25 34 -12 5 l-25 -20 -22 40 c-39 73 -248 412
-380 615 -177 274 -247 390 -315 525 -102 200 -139 327 -151 510 l-7 115 -1
-108 c-4 -273 100 -508 484 -1092 133 -203 222 -355 263 -452 55 -126 56 -136
23 -155 -15 -9 -31 -17 -37 -18 -5 -1 -24 -10 -41 -20 -24 -16 -49 -19 -125
-19 -117 1 -278 -31 -329 -66 -19 -13 -66 -38 -103 -55 -56 -25 -72 -29 -84
-19 -8 7 -12 21 -10 31 4 12 0 18 -11 18 -10 0 -44 11 -77 25 -47 19 -78 25
-141 25 -117 0 -184 16 -292 67 -81 39 -98 44 -115 34 -46 -29 -2 15 138 136
83 72 166 148 185 169 l35 38 -36 -30 c-20 -16 -83 -68 -140 -117 -173 -146
-211 -155 -354 -82 -106 54 -158 59 -163 14 -2 -14 6 -50 17 -79 11 -30 19
-55 18 -57 -5 -4 -110 67 -140 95 -16 15 -35 39 -43 54 l-14 27 102 72 c115
80 267 194 313 234 17 15 1 6 -35 -19 -171 -121 -386 -263 -395 -260 -126 35
-126 35 -140 67 -7 17 -11 35 -9 38 2 4 48 21 101 39 257 86 523 263 638 425
47 67 82 131 66 121 -6 -4 -17 -21 -26 -39 -71 -151 -347 -348 -610 -435 -117
-38 -108 -41 -160 38 -26 39 -51 70 -56 70 -14 0 -11 -7 16 -54 18 -30 23 -50
18 -71 -26 -133 7 -184 140 -210 19 -4 27 -11 27 -26 0 -46 219 -219 276 -219
7 0 23 13 35 30 l23 30 61 -59 c46 -44 70 -60 101 -65 49 -9 85 4 113 40 l21
27 43 -18 c47 -21 67 -35 49 -35 -13 0 -59 -76 -72 -120 -8 -28 -7 -30 11 -25
31 10 22 -5 -10 -16 -38 -13 -54 -50 -38 -87 26 -59 68 -58 130 4 26 25 47 50
47 55 0 5 20 29 45 55 25 25 45 54 45 64 0 19 36 60 53 60 5 0 6 -8 2 -18 -16
-38 -22 -81 -13 -90 5 -5 16 -27 23 -48 14 -39 14 -39 15 -9 l2 30 8 -29 c5
-16 10 -53 11 -82 1 -29 5 -51 8 -50 3 2 4 41 1 85 -3 52 -1 80 5 78 6 -2 22
-32 37 -67 28 -68 41 -78 100 -79 72 -2 89 22 38 52 -17 10 -32 30 -36 45 -3
15 -11 51 -18 80 -10 41 -10 52 -1 52 7 0 16 -11 19 -25 4 -16 13 -25 26 -25
29 0 138 46 182 76 21 15 65 32 98 39 l60 13 0 -29 c0 -16 -11 -52 -23 -82
-21 -46 -32 -57 -84 -85 -107 -57 -87 -84 60 -81 51 1 94 4 97 8 3 3 22 22 43
41 31 29 39 32 47 20 5 -8 10 -25 10 -37 0 -20 5 -23 35 -23 33 0 35 2 35 33
0 18 7 58 15 89 14 56 11 90 -14 137 -10 19 -9 21 11 21 13 0 56 18 95 40 72
39 73 39 110 24 45 -19 91 -13 210 27 57 19 107 29 146 29 68 0 116 23 136 66
l12 27 20 -32 c11 -18 42 -77 69 -131 43 -85 53 -99 77 -102 24 -3 29 -10 43
-63 15 -62 54 -135 71 -135 6 0 7 -5 4 -10 -4 -6 23 -10 74 -10 72 0 81 2 81
18 0 40 -32 121 -80 202 -38 64 -49 91 -45 111 4 18 -26 115 -100 320 -120
329 -172 449 -241 547 -48 68 -71 135 -159 455 -13 49 -29 94 -34 101 -8 9 4
18 47 36 31 13 58 24 60 26 7 5 -92 232 -179 409 l-94 190 1 80 c0 44 7 119
15 167 l14 87 100 -74 c55 -41 129 -95 165 -121 84 -59 422 -274 432 -274 4 0
18 -21 31 -47 15 -32 31 -49 45 -51 28 -4 29 16 3 66 -10 20 -22 51 -26 67
l-8 30 -7 -30 -8 -30 -1 36 c-1 23 5 42 17 52 23 21 66 22 85 3 7 -8 41 -28
76 -45 63 -32 70 -41 90 -116 13 -49 36 -83 48 -71 4 5 2 11 -4 13 -7 3 -13 9
-13 14 0 4 8 5 17 2 14 -6 13 -1 -5 30 -12 20 -31 52 -42 71 -14 23 -39 43
-78 61 -31 15 -71 42 -88 59 -17 18 -67 60 -110 95 -43 34 -117 93 -164 131
-47 38 -130 104 -185 148 -55 44 -125 103 -154 131 l-55 51 25 27 c61 70 55
96 -16 60 -22 -11 -35 -22 -28 -24 7 -2 22 1 33 7 32 17 39 2 10 -20 -26 -20
-107 -48 -150 -52 -14 -2 -29 -12 -35 -24 -33 -68 -339 -274 -408 -274 -29 0
-179 77 -270 138 -38 25 -95 75 -128 110 -58 64 -59 64 -53 31 8 -42 21 -59
43 -59 10 0 27 -10 39 -23 20 -21 21 -32 20 -167 -1 -111 3 -156 15 -190 9
-24 15 -45 14 -46 -1 -1 -21 -11 -45 -23 -23 -12 -75 -44 -115 -71 -71 -48
-154 -77 -186 -65 -13 5 -14 7 -1 15 8 6 28 10 43 10 40 0 63 15 81 51 19 37
20 42 6 34 -22 -14 6 31 37 58 18 16 33 34 33 39 0 6 -17 -6 -37 -26 -42 -40
-51 -43 -68 -20 -6 9 -32 18 -58 21 -38 5 -47 9 -47 25 0 23 -80 100 -98 93
-7 -3 -10 -1 -7 4 3 5 1 12 -4 15 -5 3 -29 29 -52 58 l-43 51 54 -41 c30 -23
75 -53 102 -67 l47 -26 24 48 c54 107 94 254 107 389 5 60 14 100 22 105 23
15 112 10 138 -8 14 -9 66 -56 117 -104 50 -47 129 -112 176 -143 l84 -56 104
45 c57 25 137 65 178 90 40 25 78 42 84 38 6 -3 7 -1 3 6 -11 17 24 27 36 10
8 -11 9 -11 5 2 -3 9 14 36 43 67 42 46 53 52 87 51 34 0 36 -1 14 -10 -36
-14 -20 -20 22 -8 21 5 46 8 55 5 10 -4 26 0 36 7 15 11 16 15 3 25 -16 14
-173 -2 -194 -20 -10 -8 -18 -5 -30 11 -14 17 -39 25 -115 36 -88 13 -177 32
-234 50 -21 6 -21 5 -13 -37 4 -23 8 -59 7 -78 0 -33 -6 -7 -21 100 -2 14 -27
48 -57 77 l-53 52 7 68 c3 37 9 93 12 123 7 68 -18 118 -89 179 -46 39 -51 41
-115 40 -40 0 -85 -7 -111 -18z m189 -260 c0 -23 -25 -61 -40 -61 -17 0 -19
75 -3 99 15 23 16 24 29 6 8 -10 14 -30 14 -44z m-785 17 c-6 -19 -5 -21 6
-10 20 18 31 14 19 -7 -16 -31 -12 -35 10 -10 18 21 17 16 -5 -28 -18 -37 -29
-51 -40 -47 -24 10 -29 52 -12 90 19 38 32 46 22 12z m843 -107 c23 -21 42
-44 42 -51 0 -7 -26 -39 -58 -72 l-58 -60 -37 16 c-20 8 -37 19 -37 23 0 4 14
26 30 47 21 28 30 51 30 77 0 26 6 41 18 48 24 15 22 15 70 -28z m-818 -99
c-16 -6 -60 27 -60 44 0 11 9 7 35 -13 19 -15 30 -30 25 -31z m894 12 c12 -31
6 -71 -29 -194 -43 -151 -57 -190 -66 -190 -10 0 -98 74 -121 102 -10 11 -18
33 -18 48 0 23 9 33 46 55 42 25 50 26 89 16 56 -14 52 -15 59 14 6 25 -16 95
-30 95 -4 0 -19 -10 -33 -22 -14 -13 -1 3 29 35 30 31 57 57 61 57 4 0 10 -7
13 -16z m-185 -95 c12 -8 6 -9 -21 -5 l-37 5 -4 -57 -3 -57 -2 67 -2 67 27 -5
c15 -3 34 -10 42 -15z m844 -66 c-13 -2 -33 -2 -45 0 -13 2 -3 4 22 4 25 0 35
-2 23 -4z m-246 -40 c-8 -16 -17 -35 -21 -43 -3 -8 -3 -2 0 15 5 27 21 55 30
55 3 0 -2 -12 -9 -27z m-306 -30 c8 2 11 2 8 0 -3 -2 -5 -16 -3 -31 2 -16 1
-19 -2 -8 -4 11 -14 27 -23 35 -9 9 -12 13 -5 8 6 -4 18 -6 25 -4z m-1054
-115 c-2 -13 -4 -5 -4 17 -1 22 1 32 4 23 2 -10 2 -28 0 -40z m1032 -17 c-12
-34 -23 -60 -25 -58 -2 2 6 32 17 66 12 34 23 60 25 58 2 -2 -6 -32 -17 -66z
m-1025 -95 c9 -21 16 -40 16 -42 0 -3 -22 7 -50 21 -59 30 -77 32 -33 4 l31
-20 -82 -77 c-80 -76 -180 -148 -262 -190 -41 -21 -41 -21 -125 -2 -129 28
-305 96 -340 131 -18 18 -26 19 -67 10 -118 -25 -148 -27 -162 -12 -12 13 -12
14 3 8 11 -4 16 -3 12 4 -4 6 -20 7 -38 4 -47 -10 -22 10 37 30 79 26 222 29
309 5 39 -10 127 -28 194 -40 l122 -20 118 89 c66 50 136 112 158 141 22 29
60 66 85 82 l45 29 6 -58 c3 -32 13 -75 23 -97z m1124 107 c-4 -24 -78 -32
-78 -9 0 17 15 24 53 25 22 1 28 -3 25 -16z m-1097 -105 c10 -27 17 -48 14
-48 -10 0 -34 58 -39 95 -3 22 -3 31 1 20 3 -11 14 -41 24 -67z m1522 35 c-7
-2 -21 -2 -30 0 -10 3 -4 5 12 5 17 0 24 -2 18 -5z m-759 -175 c9 -45 2 -44
-16 1 -12 30 -13 38 -3 35 7 -3 16 -19 19 -36z m996 18 c19 -9 51 -30 70 -47
31 -27 29 -26 -23 7 -35 23 -83 43 -120 51 l-62 13 50 -4 c28 -1 66 -10 85
-20z m-931 -60 c0 -11 -6 -37 -14 -56 l-13 -35 -10 26 c-13 32 -15 45 -13 87
1 32 1 32 26 16 14 -9 25 -25 24 -38z m-1977 -16 c-41 -25 -54 -25 -23 0 13
11 31 20 40 20 9 0 3 -8 -17 -20z m140 -10 c-18 -4 -51 -22 -72 -39 -45 -36
-62 -41 -34 -10 30 35 77 59 109 58 l30 -1 -33 -8z m1193 -70 c10 -11 16 -20
13 -20 -3 0 -13 9 -23 20 -10 11 -16 20 -13 20 3 0 13 -9 23 -20z m55 -40 c0
-5 -12 -13 -26 -16 -25 -6 -25 -7 -6 -25 14 -13 39 -19 84 -21 35 -2 62 -7 61
-13 -1 -5 -29 -16 -62 -24 -34 -8 -61 -18 -61 -23 0 -10 2 -10 78 6 34 8 65
10 67 6 5 -8 -34 -24 -115 -49 l-35 -11 35 5 c19 2 55 7 80 10 67 10 36 -15
-37 -30 -40 -9 -57 -17 -55 -26 8 -31 -40 28 -68 84 -34 68 -37 98 -14 121 17
17 74 22 74 6z m640 -70 c0 -15 -26 -23 -41 -14 -9 5 -7 10 7 15 27 11 34 10
34 -1z m1206 -54 c-20 -19 -36 -43 -36 -56 0 -27 -24 -22 -28 7 -4 29 44 83
75 83 24 0 24 -1 -11 -34z m-1915 -53 c11 -18 18 -33 15 -33 -9 0 -56 86 -55
101 0 8 5 3 10 -10 5 -14 19 -40 30 -58z m831 -206 c120 -182 251 -345 303
-377 43 -27 44 -32 5 -18 -74 25 -323 350 -414 538 -14 30 -21 47 -14 37 7
-10 61 -91 120 -180z m1358 83 c6 -11 8 -20 6 -20 -3 0 -10 9 -16 20 -6 11 -8
20 -6 20 3 0 10 -9 16 -20z m-240 -6 c0 -8 -4 -12 -10 -9 -5 3 -10 10 -10 16
0 5 5 9 10 9 6 0 10 -7 10 -16z m-2485 -1790 c33 -20 70 -40 82 -45 13 -5 23
-12 24 -16 0 -5 2 -21 3 -37 1 -17 13 -38 29 -52 26 -22 27 -24 7 -24 -33 0
-85 25 -106 51 -10 14 -42 44 -71 68 -52 44 -68 65 -57 82 9 16 27 10 89 -27z
m186 -143 c12 -4 18 -10 13 -14 -16 -9 -74 31 -74 51 0 32 13 33 26 2 7 -17
23 -34 35 -39z m424 -144 c7 -17 6 -17 -23 0 -32 19 -37 48 -11 79 13 15 15
13 20 -22 3 -21 10 -47 14 -57z m-179 -6 c-8 -9 -24 -37 -36 -63 -12 -26 -34
-55 -48 -64 -27 -18 -79 -21 -95 -5 -5 5 31 45 79 89 68 64 91 79 101 70 11
-9 11 -14 -1 -27z m2058 -67 c4 -9 4 -19 1 -22 -6 -6 -35 18 -35 29 0 16 28
10 34 -7z"/>
<path d="M2717 4227 c-11 -29 -9 -43 4 -30 6 6 9 19 7 29 -3 18 -4 18 -11 1z"/>
<path d="M2740 3796 c0 -9 7 -16 16 -16 9 0 14 5 12 12 -6 18 -28 21 -28 4z"/>
<path d="M895 3410 c4 -6 11 -8 16 -5 14 9 11 15 -7 15 -8 0 -12 -5 -9 -10z"/>
<path d="M1530 3300 c8 -5 22 -10 30 -10 13 0 13 1 0 10 -8 5 -22 10 -30 10
-13 0 -13 -1 0 -10z"/>
<path d="M2453 4255 c0 -22 2 -30 4 -17 2 12 2 30 0 40 -3 9 -5 -1 -4 -23z"/>
<path d="M2508 4229 c-10 -5 -18 -16 -18 -24 0 -16 43 -31 60 -20 17 10 2 24
-20 18 -11 -3 -20 0 -20 6 0 6 7 11 15 11 8 0 15 5 15 10 0 13 -10 12 -32 -1z"/>
<path d="M2460 4200 c0 -5 5 -10 11 -10 5 0 7 5 4 10 -3 6 -8 10 -11 10 -2 0
-4 -4 -4 -10z"/>
<path d="M2340 4156 c0 -2 8 -10 18 -17 15 -13 16 -12 3 4 -13 16 -21 21 -21
13z"/>
<path d="M2485 4109 c-16 -3 -25 -7 -18 -8 7 0 20 -10 30 -20 23 -24 82 -18
62 6 -20 23 -42 30 -74 22z"/>
<path d="M2171 4049 c11 -22 29 -25 29 -5 0 7 -9 16 -20 19 -17 4 -18 2 -9
-14z"/>
<path d="M3483 3818 c-18 -6 -33 -15 -33 -19 0 -4 14 -3 30 3 17 5 37 7 45 4
9 -3 15 0 15 9 0 17 -11 17 -57 3z"/>
<path d="M3272 3700 c0 -8 4 -26 8 -40 6 -20 8 -21 8 -5 0 11 -3 29 -8 40 -5
12 -8 14 -8 5z"/>
<path d="M2650 3072 c6 -13 35 -94 65 -180 54 -159 122 -326 177 -437 33 -66
108 -195 114 -195 1 0 -33 73 -76 163 -43 89 -106 243 -140 341 -60 175 -101
270 -135 311 -16 19 -16 19 -5 -3z"/>
<path d="M4120 3023 c0 -8 96 -104 118 -117 17 -10 15 -1 -4 18 -11 12 -12 16
-2 16 7 0 26 -18 42 -40 17 -22 33 -40 37 -40 17 0 20 22 5 39 -9 10 -16 23
-16 29 0 21 -51 71 -83 81 -55 17 -97 23 -97 14z"/>
<path d="M2342 2920 c0 -14 2 -19 5 -12 2 6 2 18 0 25 -3 6 -5 1 -5 -13z"/>
<path d="M2547 2879 c-22 -175 82 -555 188 -684 20 -24 18 -18 -10 36 -92 176
-154 395 -164 584 -6 110 -7 115 -14 64z"/>
<path d="M2620 2885 c0 -13 86 -166 101 -180 10 -9 -14 37 -78 150 -13 22 -23
35 -23 30z"/>
<path d="M2117 2748 c-14 -35 -56 -146 -92 -247 -37 -102 -84 -224 -105 -273
-21 -48 -36 -88 -35 -88 8 0 60 102 92 180 20 47 64 168 98 270 35 102 66 193
70 203 4 9 5 17 3 17 -3 0 -17 -28 -31 -62z"/>
<path d="M2241 2729 c-1 -100 26 -202 93 -353 37 -83 59 -149 71 -211 8 -49
22 -124 30 -165 25 -130 35 -279 26 -370 -5 -47 -6 -87 -2 -90 10 -7 25 -43
22 -53 -1 -5 3 -6 8 -3 13 9 20 -27 27 -144 7 -114 3 -108 66 -111 11 0 18
-11 21 -32 2 -18 2 15 0 73 -9 216 -75 571 -129 690 -45 100 -19 80 30 -24 25
-53 46 -100 46 -106 0 -5 5 -10 10 -10 6 0 10 -6 10 -14 0 -8 8 -17 17 -20 15
-6 15 -8 3 -16 -11 -7 -12 -10 -2 -10 7 0 10 -4 7 -10 -3 -5 -1 -10 5 -10 6 0
9 -3 7 -7 -4 -10 70 -82 78 -75 3 3 5 -2 5 -12 0 -9 7 -19 15 -22 8 -4 12 -11
8 -18 -4 -6 2 -4 12 4 10 8 16 10 12 4 -4 -7 11 -16 41 -24 26 -7 52 -17 59
-22 7 -6 14 -4 19 3 5 8 3 9 -5 5 -8 -5 -11 -3 -9 7 3 16 -64 125 -160 259
-74 104 -216 341 -302 503 -76 145 -108 237 -124 360 l-14 100 -1 -76z"/>
<path d="M2486 2725 c3 -38 12 -105 20 -148 8 -43 12 -83 8 -89 -5 -7 -3 -8 6
-3 10 6 12 3 8 -13 -4 -14 -2 -20 5 -15 6 4 8 0 4 -10 -3 -10 -2 -17 3 -17 5
0 7 -6 5 -13 -8 -18 68 -160 133 -251 78 -108 157 -192 265 -282 l92 -76 -131
129 c-72 72 -158 166 -191 209 -77 102 -87 123 -27 54 132 -150 256 -265 324
-300 33 -17 26 -10 -45 42 -116 86 -289 279 -359 401 -46 80 -77 176 -102 317
-17 98 -22 116 -18 65z"/>
<path d="M2620 2746 c0 -19 76 -184 121 -264 46 -79 136 -212 144 -212 2 0
-23 43 -56 96 -33 52 -94 161 -134 242 -41 81 -75 143 -75 138z"/>
<path d="M1949 2553 c-28 -54 -69 -123 -89 -153 -111 -163 -275 -248 -485
-251 -108 -2 -72 -16 45 -18 179 -3 332 80 440 239 36 53 154 280 146 280 -2
0 -28 -44 -57 -97z"/>
<path d="M690 2575 c0 -3 14 -24 30 -47 17 -23 41 -76 55 -119 22 -70 33 -138
65 -391 10 -83 46 -186 91 -257 22 -36 25 -48 17 -67 -8 -18 -7 -34 6 -67 17
-46 80 -127 98 -127 5 0 -9 21 -31 46 -42 48 -68 111 -58 139 4 8 26 24 51 34
24 11 47 24 51 31 4 6 -2 32 -13 58 -11 26 -32 109 -46 184 -45 236 -99 386
-153 429 -12 10 -10 3 5 -18 35 -50 74 -142 68 -159 -3 -8 -2 -13 3 -9 13 7
49 -154 66 -292 15 -115 12 -137 -20 -178 -18 -22 -19 -21 -57 50 -39 74 -59
150 -73 285 -25 228 -60 365 -107 425 -11 14 -18 29 -15 32 12 11 147 -27 219
-61 40 -19 118 -65 173 -102 124 -82 179 -110 252 -129 102 -27 287 -14 348
24 23 14 26 14 -64 -9 -149 -39 -330 8 -536 137 -139 87 -243 131 -359 152
-69 13 -66 12 -66 6z"/>
<path d="M1870 2529 c-55 -48 -186 -106 -280 -125 -80 -16 -194 -15 -295 1
-27 5 -27 4 -7 -4 12 -6 58 -15 102 -20 180 -23 391 40 495 149 37 38 30 38
-15 -1z"/>
<path d="M1135 2445 c41 -34 136 -85 187 -100 82 -24 91 -17 10 9 -40 13 -78
28 -85 33 -24 19 -132 74 -112 58z"/>
<path d="M2211 2359 c-24 -185 -100 -431 -161 -524 -15 -22 -30 -49 -33 -60
-6 -19 -6 -19 6 -2 98 146 145 253 177 407 17 83 36 270 28 270 -2 0 -10 -41
-17 -91z"/>
<path d="M2301 2350 c0 -55 13 -113 27 -118 17 -5 15 23 -7 93 -17 54 -19 57
-20 25z"/>
<path d="M2500 2340 c6 -11 13 -20 16 -20 2 0 0 9 -6 20 -6 11 -13 20 -16 20
-2 0 0 -9 6 -20z"/>
<path d="M2560 2230 c6 -11 13 -20 16 -20 2 0 0 9 -6 20 -6 11 -13 20 -16 20
-2 0 0 -9 6 -20z"/>
<path d="M2251 2224 c0 -11 3 -14 6 -6 3 7 2 16 -1 19 -3 4 -6 -2 -5 -13z"/>
<path d="M2242 2160 c0 -14 2 -19 5 -12 2 6 2 18 0 25 -3 6 -5 1 -5 -13z"/>
<path d="M2361 2104 c-2 -166 -57 -386 -128 -512 -19 -35 -64 -101 -100 -145
l-65 -82 59 60 c75 77 127 157 176 267 64 146 92 334 68 453 -8 35 -9 29 -10
-41z"/>
<path d="M2342 2145 c0 -16 2 -22 5 -12 2 9 2 23 0 30 -3 6 -5 -1 -5 -18z"/>
<path d="M2222 2055 c-7 -35 -15 -72 -19 -82 -4 -14 -3 -15 6 -7 12 11 37 142
29 150 -3 2 -10 -25 -16 -61z"/>
<path d="M1780 1969 c-109 -99 -229 -167 -383 -218 -100 -33 -73 -38 30 -6
149 46 258 112 363 219 67 69 63 71 -10 5z"/>
<path d="M2012 1916 c-23 -39 -33 -60 -22 -46 26 30 74 110 69 114 -2 2 -23
-28 -47 -68z"/>
<path d="M3117 1978 c6 -7 68 -96 138 -198 87 -124 155 -210 208 -262 44 -43
84 -78 89 -78 6 0 -18 30 -52 67 -68 72 -205 243 -314 391 -37 50 -70 92 -73
92 -3 0 -1 -6 4 -12z"/>
<path d="M2419 1958 c-1 -13 -3 -39 -5 -58 -2 -19 -5 -60 -7 -90 -2 -30 -8
-63 -12 -73 -4 -10 -5 -21 -1 -24 3 -4 6 2 7 13 0 14 4 11 14 -11 12 -27 13
-14 14 118 0 81 -2 147 -4 147 -3 0 -6 -10 -6 -22z"/>
<path d="M1956 1698 c3 -5 10 -6 15 -3 13 9 11 12 -6 12 -8 0 -12 -4 -9 -9z"/>
<path d="M1917 1643 l-28 -48 30 35 c25 29 40 60 28 60 -1 0 -15 -21 -30 -47z"/>
<path d="M2606 1592 c2 -7 10 -38 18 -70 16 -61 34 -192 39 -282 3 -42 4 -36
5 25 2 92 -15 244 -29 261 -5 6 -6 20 -2 29 5 14 3 16 -7 10 -10 -6 -11 -2 -6
21 4 19 3 24 -2 15 -5 -7 -12 -9 -14 -5 -3 5 -3 3 -2 -4z"/>
<path d="M2361 1484 c0 -11 3 -14 6 -6 3 7 2 16 -1 19 -3 4 -6 -2 -5 -13z"/>
<path d="M2363 1448 c-6 -7 -14 -31 -17 -53 -4 -22 -18 -67 -31 -100 -33 -80
-22 -84 14 -4 51 113 70 203 34 157z"/>
<path d="M3570 1426 c0 -2 8 -10 18 -17 15 -13 16 -12 3 4 -13 16 -21 21 -21
13z"/>
<path d="M2265 1190 c-9 -16 -13 -30 -11 -30 3 0 12 14 21 30 9 17 13 30 11
30 -3 0 -12 -13 -21 -30z"/>
</g>
</svg>